<svg xmlns="http://www.w3.org/2000/svg" viewBox="0 0 400 300" role="img" aria-labelledby="title">
  <title>UI kit components illustration</title>
  <defs>
    <linearGradient id="gridGradient" x1="0%" y1="0%" x2="100%" y2="0%">
      <stop offset="0%" stop-color="var(--accent-primary)" stop-opacity="0.15" />
      <stop offset="100%" stop-color="var(--accent-secondary)" stop-opacity="0.08" />
    </linearGradient>
  </defs>
  <rect width="400" height="300" rx="32" fill="url(#gridGradient)" />
  <g opacity="0.25">
    <path d="M60 90h280M60 130h280M60 170h280M60 210h280" stroke="var(--accent-primary)" stroke-width="1" stroke-dasharray="6 6" />
    <path d="M100 70v200M160 70v200M220 70v200M280 70v200" stroke="var(--accent-secondary)" stroke-width="1" stroke-dasharray="6 6" />
  </g>
  <rect x="92" y="110" width="80" height="56" rx="14" fill="var(--background)" opacity="0.8" />
  <rect x="112" y="126" width="40" height="8" rx="4" fill="var(--accent-primary)" opacity="0.9" />
  <rect x="112" y="142" width="48" height="8" rx="4" fill="var(--accent-primary)" opacity="0.6" />

  <rect x="208" y="98" width="120" height="76" rx="20" fill="var(--background)" opacity="0.85" />
  <rect x="228" y="116" width="36" height="36" rx="10" fill="var(--accent-primary)" opacity="0.9" />
  <rect x="272" y="120" width="44" height="10" rx="5" fill="var(--accent-primary)" opacity="0.7" />
  <rect x="272" y="142" width="52" height="10" rx="5" fill="var(--accent-primary)" opacity="0.55" />

  <rect x="124" y="198" width="180" height="70" rx="18" fill="var(--background)" opacity="0.9" />
  <rect x="150" y="220" width="72" height="12" rx="6" fill="var(--accent-primary)" opacity="0.8" />
  <rect x="150" y="240" width="120" height="12" rx="6" fill="var(--accent-primary)" opacity="0.5" />
  <circle cx="290" cy="220" r="14" fill="var(--accent-primary)" opacity="0.6" />
</svg>
